<svg width="751" height="387" viewBox="0 0 751 387" fill="none" xmlns="http://www.w3.org/2000/svg">
<path d="M750.098 230.557L609.272 230.975L594.216 386.165H650.257L682.928 343.971L682.957 343.673L654.578 343.397L661.688 273.046H689.808L682.957 343.673L683.156 343.675L682.928 343.971L678.835 386.165H734.988L750.098 230.557Z" fill="#0066B3"/>
<path d="M456.735 230.974H597.814L582.2 386.165H526.047L537.451 273.324H509.152L497.469 386.165H441.428L456.735 230.974Z" fill="#0066B3"/>
<path d="M360.015 232.089L354.98 288.091L390.25 231.95H446.57L410.603 288.23H439.391L429.702 386.443H373.382L378.819 330.72H349.822L344.386 386.443H288.64L303.695 232.089H360.015Z" fill="#0066B3"/>
<path fill-rule="evenodd" clip-rule="evenodd" d="M150.881 231.81H291.959L276.346 387H135.574L150.881 231.81ZM231.596 274.16L224.235 344.511L196.327 344.65L203.297 274.16H231.596Z" fill="#0066B3"/>
<path fill-rule="evenodd" clip-rule="evenodd" d="M320.396 64.9185H461.475L445.861 220.109H305.089L320.396 64.9185ZM401.112 107.268L393.751 177.62L365.842 177.759L372.813 107.268H401.112Z" fill="#00AEEF"/>
<path d="M165.127 6.10352e-05C232.878 4.40297e-05 226.047 48.3403 226.047 48.3403L218.658 121.477L253.928 65.336H310.248L274.281 121.617H303.069L293.38 219.83H237.06L242.497 164.106H213.5L208.064 219.83H152.318L170.006 44.9969C171.632 33.945 172.933 9.47307 165.127 6.10352e-05Z" fill="#00AEEF"/>
<path d="M15.4056 64.6399H156.484L152.302 106.99L89.5693 176.923H89.2904L95.7031 106.99H67.822L60.8518 177.48H145.053L140.87 219.83H0.0985107L15.4056 64.6399Z" fill="#00AEEF"/>
</svg>
