<?xml version="1.0" encoding="utf-8"?>
<!-- Generator: Adobe Illustrator 17.1.0, SVG Export Plug-In . SVG Version: 6.00 Build 0)  -->
<!DOCTYPE svg PUBLIC "-//W3C//DTD SVG 1.1//EN" "http://www.w3.org/Graphics/SVG/1.1/DTD/svg11.dtd">
<svg version="1.1" id="Layer_1" xmlns="http://www.w3.org/2000/svg" xmlns:xlink="http://www.w3.org/1999/xlink" x="0px" y="0px"
	 width="106px" height="117px" viewBox="0 0 106 117" enable-background="new 0 0 106 117" xml:space="preserve">
<polygon fill="#0074B8" points="53,0 0,53.5 5,58.5 0,63.5 53,117 106,63.5 101,58.5 106,53.5 "/>
<polygon fill="#0074B8" points="3.1,63.5 53,13.3 102.7,63.5 53,113.8 "/>
<path fill="#FEFEFE" d="M53,114.5l-50.5-51l50.5-51l50.5,51L53,114.5z M3.9,63.5L3.9,63.5L53,113L102,63.5L53,14L3.9,63.5z"/>
<polygon fill="#0074B8" points="3.1,53.5 53,3.3 102.7,53.5 53,103.8 "/>
<path fill="#FEFEFE" d="M53,104.5l-50.5-51L53,2.5l50.5,51L53,104.5z M3.9,53.5L3.9,53.5L53,103L102,53.5L53,4L3.9,53.5z"/>
<polygon fill="#0074B8" points="12.8,53.8 53,13.3 93.1,53.8 53,94.2 "/>
<path fill="#FEFEFE" d="M53,94.9L12.2,53.8L53,12.5l40.8,41.3L53,94.9z M13.6,53.8L13.6,53.8L53,93.5l39.4-39.7L53,14L13.6,53.8z"/>
<rect x="16.7" y="41.4" fill="#FEFEFE" width="72.5" height="23.8"/>
<g>
	<defs>
		<rect id="SVGID_1_" width="106" height="117"/>
	</defs>
	<clipPath id="SVGID_2_">
		<use xlink:href="#SVGID_1_"  overflow="visible"/>
	</clipPath>
	<path clip-path="url(#SVGID_2_)" fill="#0074B8" d="M30,63.6l6-20.4h-6.4c0,0-2.1,8.8-2.3,10.4h-0.1c-0.2-1.6-2.1-10.4-2.1-10.4
		h-6.2l5,20.4H30z"/>
	<polygon clip-path="url(#SVGID_2_)" fill="#0074B8" points="38.2,63.6 49.3,63.6 49.3,58.8 44.2,58.8 44.2,55.6 48.1,55.6 
		48.1,50.7 44.2,50.7 44.2,47.9 49.3,47.9 49.3,43.1 38.2,43.1 	"/>
	<polygon clip-path="url(#SVGID_2_)" fill-rule="evenodd" clip-rule="evenodd" fill="#0074B8" points="69.2,63.6 63.9,53 68.6,43.1 
		62.4,43.1 59.1,50.4 59,50.4 59,50.4 59.1,50.4 59,50.4 59.1,50.4 59.1,43.1 53.1,43.1 53.1,63.6 59.1,63.6 59.1,55.6 59.2,55.6 
		59.1,55.6 62.8,63.6 	"/>
	<path clip-path="url(#SVGID_2_)" fill-rule="evenodd" clip-rule="evenodd" fill="#0074B8" d="M77.3,55.8l0.8-4
		c0.2-1.2,0.4-2.5,0.5-3.9h0.1c0.2,1.3,0.2,2.6,0.5,3.9l0.6,4H77.3z M87.1,63.6L87.1,63.6l-4.7-20.4h-7.2l-5.3,20.4h6.2l0.5-2.6h4
		l0.5,2.6H87.1z"/>
</g>
</svg>
